<svg id="visual" viewBox="0 0 900 600" width="900" height="600" xmlns="http://www.w3.org/2000/svg" xmlns:xlink="http://www.w3.org/1999/xlink" version="1.1"><rect x="0" y="0" width="900" height="600" fill="#202731"></rect><path d="M0 184L13.7 175.2C27.3 166.3 54.7 148.7 82 154.2C109.3 159.7 136.7 188.3 163.8 186.3C191 184.3 218 151.7 245.2 140.3C272.3 129 299.7 139 327 136.5C354.3 134 381.7 119 409 121.8C436.3 124.7 463.7 145.3 491 164C518.3 182.7 545.7 199.3 573 210C600.3 220.7 627.7 225.3 654.8 225.5C682 225.7 709 221.3 736.2 219.2C763.3 217 790.7 217 818 199.5C845.3 182 872.7 147 886.3 129.5L900 112L900 601L886.3 601C872.7 601 845.3 601 818 601C790.7 601 763.3 601 736.2 601C709 601 682 601 654.8 601C627.7 601 600.3 601 573 601C545.7 601 518.3 601 491 601C463.7 601 436.3 601 409 601C381.7 601 354.3 601 327 601C299.7 601 272.3 601 245.2 601C218 601 191 601 163.8 601C136.7 601 109.3 601 82 601C54.7 601 27.3 601 13.7 601L0 601Z" fill="#271e32"></path><path d="M0 227L13.7 228.8C27.3 230.7 54.7 234.3 82 239.5C109.3 244.7 136.7 251.3 163.8 241.7C191 232 218 206 245.2 203C272.3 200 299.7 220 327 225.8C354.3 231.7 381.7 223.3 409 219.8C436.3 216.3 463.7 217.7 491 221.2C518.3 224.7 545.7 230.3 573 234C600.3 237.7 627.7 239.3 654.8 233.7C682 228 709 215 736.2 212.8C763.3 210.7 790.7 219.3 818 229.5C845.3 239.7 872.7 251.3 886.3 257.2L900 263L900 601L886.3 601C872.7 601 845.3 601 818 601C790.7 601 763.3 601 736.2 601C709 601 682 601 654.8 601C627.7 601 600.3 601 573 601C545.7 601 518.3 601 491 601C463.7 601 436.3 601 409 601C381.7 601 354.3 601 327 601C299.7 601 272.3 601 245.2 601C218 601 191 601 163.8 601C136.7 601 109.3 601 82 601C54.7 601 27.3 601 13.7 601L0 601Z" fill="#34213d"></path><path d="M0 184L13.7 195.8C27.3 207.7 54.7 231.3 82 247C109.3 262.7 136.7 270.3 163.8 272.7C191 275 218 272 245.2 269.2C272.3 266.3 299.7 263.7 327 264.7C354.3 265.7 381.7 270.3 409 275.8C436.3 281.3 463.7 287.7 491 275.7C518.3 263.7 545.7 233.3 573 219.3C600.3 205.3 627.7 207.7 654.8 221.7C682 235.7 709 261.3 736.2 265.2C763.3 269 790.7 251 818 243.5C845.3 236 872.7 239 886.3 240.5L900 242L900 601L886.3 601C872.7 601 845.3 601 818 601C790.7 601 763.3 601 736.2 601C709 601 682 601 654.8 601C627.7 601 600.3 601 573 601C545.7 601 518.3 601 491 601C463.7 601 436.3 601 409 601C381.7 601 354.3 601 327 601C299.7 601 272.3 601 245.2 601C218 601 191 601 163.8 601C136.7 601 109.3 601 82 601C54.7 601 27.3 601 13.7 601L0 601Z" fill="#432346"></path><path d="M0 250L13.7 262.5C27.3 275 54.7 300 82 311.7C109.3 323.3 136.7 321.7 163.8 316.8C191 312 218 304 245.2 290C272.3 276 299.7 256 327 249C354.3 242 381.7 248 409 257.2C436.3 266.3 463.7 278.7 491 291C518.3 303.3 545.7 315.7 573 306.2C600.3 296.7 627.7 265.3 654.8 254.5C682 243.7 709 253.3 736.2 259.5C763.3 265.7 790.7 268.3 818 268C845.3 267.7 872.7 264.3 886.3 262.7L900 261L900 601L886.3 601C872.7 601 845.3 601 818 601C790.7 601 763.3 601 736.2 601C709 601 682 601 654.8 601C627.7 601 600.3 601 573 601C545.7 601 518.3 601 491 601C463.7 601 436.3 601 409 601C381.7 601 354.3 601 327 601C299.7 601 272.3 601 245.2 601C218 601 191 601 163.8 601C136.7 601 109.3 601 82 601C54.7 601 27.3 601 13.7 601L0 601Z" fill="#54234c"></path><path d="M0 285L13.7 284.7C27.3 284.3 54.7 283.7 82 293.2C109.3 302.7 136.7 322.3 163.8 330.8C191 339.3 218 336.7 245.2 332.7C272.3 328.7 299.7 323.3 327 325.5C354.3 327.7 381.7 337.3 409 333C436.3 328.7 463.7 310.3 491 311.3C518.3 312.3 545.7 332.7 573 328.8C600.3 325 627.7 297 654.8 293.8C682 290.7 709 312.3 736.2 322.8C763.3 333.3 790.7 332.7 818 326.5C845.3 320.3 872.7 308.7 886.3 302.8L900 297L900 601L886.3 601C872.7 601 845.3 601 818 601C790.7 601 763.3 601 736.2 601C709 601 682 601 654.8 601C627.7 601 600.3 601 573 601C545.7 601 518.3 601 491 601C463.7 601 436.3 601 409 601C381.7 601 354.3 601 327 601C299.7 601 272.3 601 245.2 601C218 601 191 601 163.8 601C136.7 601 109.3 601 82 601C54.7 601 27.3 601 13.7 601L0 601Z" fill="#662251"></path><path d="M0 345L13.7 350.7C27.3 356.3 54.7 367.7 82 369.8C109.3 372 136.7 365 163.8 360.5C191 356 218 354 245.2 344.5C272.3 335 299.7 318 327 321.8C354.3 325.7 381.7 350.3 409 353.5C436.3 356.7 463.7 338.3 491 327.7C518.3 317 545.7 314 573 321.3C600.3 328.7 627.7 346.3 654.8 355C682 363.7 709 363.3 736.2 366.2C763.3 369 790.7 375 818 369.5C845.3 364 872.7 347 886.3 338.5L900 330L900 601L886.3 601C872.7 601 845.3 601 818 601C790.7 601 763.3 601 736.2 601C709 601 682 601 654.8 601C627.7 601 600.3 601 573 601C545.7 601 518.3 601 491 601C463.7 601 436.3 601 409 601C381.7 601 354.3 601 327 601C299.7 601 272.3 601 245.2 601C218 601 191 601 163.8 601C136.7 601 109.3 601 82 601C54.7 601 27.3 601 13.7 601L0 601Z" fill="#792053"></path><path d="M0 381L13.7 377.2C27.3 373.3 54.7 365.7 82 368C109.3 370.3 136.7 382.7 163.8 379.8C191 377 218 359 245.2 350.3C272.3 341.7 299.7 342.3 327 350.7C354.3 359 381.7 375 409 379.8C436.3 384.7 463.7 378.3 491 374C518.3 369.7 545.7 367.3 573 372.2C600.3 377 627.7 389 654.8 396C682 403 709 405 736.2 396C763.3 387 790.7 367 818 359.8C845.3 352.7 872.7 358.3 886.3 361.2L900 364L900 601L886.3 601C872.7 601 845.3 601 818 601C790.7 601 763.3 601 736.2 601C709 601 682 601 654.8 601C627.7 601 600.3 601 573 601C545.7 601 518.3 601 491 601C463.7 601 436.3 601 409 601C381.7 601 354.3 601 327 601C299.7 601 272.3 601 245.2 601C218 601 191 601 163.8 601C136.7 601 109.3 601 82 601C54.7 601 27.3 601 13.7 601L0 601Z" fill="#8b1c52"></path><path d="M0 412L13.7 411.7C27.3 411.3 54.7 410.7 82 412C109.3 413.3 136.7 416.7 163.8 417.8C191 419 218 418 245.2 415.8C272.3 413.7 299.7 410.3 327 415C354.3 419.7 381.7 432.3 409 430C436.3 427.7 463.7 410.3 491 408.3C518.3 406.3 545.7 419.7 573 419C600.3 418.3 627.7 403.7 654.8 401C682 398.3 709 407.7 736.2 416.8C763.3 426 790.7 435 818 439.7C845.3 444.3 872.7 444.7 886.3 444.8L900 445L900 601L886.3 601C872.7 601 845.3 601 818 601C790.7 601 763.3 601 736.2 601C709 601 682 601 654.8 601C627.7 601 600.3 601 573 601C545.7 601 518.3 601 491 601C463.7 601 436.3 601 409 601C381.7 601 354.3 601 327 601C299.7 601 272.3 601 245.2 601C218 601 191 601 163.8 601C136.7 601 109.3 601 82 601C54.7 601 27.3 601 13.7 601L0 601Z" fill="#9e174f"></path><path d="M0 436L13.7 441.8C27.3 447.7 54.7 459.3 82 459.2C109.3 459 136.7 447 163.8 440.8C191 434.7 218 434.3 245.2 441.5C272.3 448.7 299.7 463.3 327 466C354.3 468.7 381.7 459.3 409 457.8C436.3 456.3 463.7 462.7 491 462.2C518.3 461.7 545.7 454.3 573 447.3C600.3 440.3 627.7 433.7 654.8 437.5C682 441.3 709 455.7 736.2 454.3C763.3 453 790.7 436 818 428.8C845.3 421.7 872.7 424.3 886.3 425.7L900 427L900 601L886.3 601C872.7 601 845.3 601 818 601C790.7 601 763.3 601 736.2 601C709 601 682 601 654.8 601C627.7 601 600.3 601 573 601C545.7 601 518.3 601 491 601C463.7 601 436.3 601 409 601C381.7 601 354.3 601 327 601C299.7 601 272.3 601 245.2 601C218 601 191 601 163.8 601C136.7 601 109.3 601 82 601C54.7 601 27.3 601 13.7 601L0 601Z" fill="#af1349"></path><path d="M0 460L13.7 467.8C27.3 475.7 54.7 491.3 82 499.5C109.3 507.7 136.7 508.3 163.8 502.3C191 496.3 218 483.7 245.2 481.5C272.3 479.3 299.7 487.7 327 492.2C354.3 496.7 381.7 497.3 409 499.2C436.3 501 463.7 504 491 502C518.3 500 545.7 493 573 491.5C600.3 490 627.7 494 654.8 491.7C682 489.3 709 480.7 736.2 475.3C763.3 470 790.7 468 818 473.5C845.3 479 872.7 492 886.3 498.5L900 505L900 601L886.3 601C872.7 601 845.3 601 818 601C790.7 601 763.3 601 736.2 601C709 601 682 601 654.8 601C627.7 601 600.3 601 573 601C545.7 601 518.3 601 491 601C463.7 601 436.3 601 409 601C381.7 601 354.3 601 327 601C299.7 601 272.3 601 245.2 601C218 601 191 601 163.8 601C136.7 601 109.3 601 82 601C54.7 601 27.3 601 13.7 601L0 601Z" fill="#be1341"></path><path d="M0 532L13.7 527.3C27.3 522.7 54.7 513.3 82 511.2C109.3 509 136.7 514 163.8 518.7C191 523.3 218 527.7 245.2 523.8C272.3 520 299.7 508 327 502C354.3 496 381.7 496 409 497.3C436.3 498.7 463.7 501.3 491 502.5C518.3 503.7 545.7 503.3 573 505.7C600.3 508 627.7 513 654.8 518.2C682 523.3 709 528.7 736.2 528.2C763.3 527.7 790.7 521.3 818 515.7C845.3 510 872.7 505 886.3 502.5L900 500L900 601L886.3 601C872.7 601 845.3 601 818 601C790.7 601 763.3 601 736.2 601C709 601 682 601 654.8 601C627.7 601 600.3 601 573 601C545.7 601 518.3 601 491 601C463.7 601 436.3 601 409 601C381.7 601 354.3 601 327 601C299.7 601 272.3 601 245.2 601C218 601 191 601 163.8 601C136.7 601 109.3 601 82 601C54.7 601 27.3 601 13.7 601L0 601Z" fill="#cc1b36"></path><path d="M0 538L13.7 538.7C27.3 539.3 54.7 540.7 82 541.7C109.3 542.7 136.7 543.3 163.8 544.3C191 545.3 218 546.7 245.2 547.3C272.3 548 299.7 548 327 546.7C354.3 545.3 381.7 542.7 409 541C436.3 539.3 463.7 538.7 491 542.2C518.3 545.7 545.7 553.3 573 554.7C600.3 556 627.7 551 654.8 550.3C682 549.7 709 553.3 736.2 552.5C763.3 551.7 790.7 546.3 818 546C845.3 545.7 872.7 550.3 886.3 552.7L900 555L900 601L886.3 601C872.7 601 845.3 601 818 601C790.7 601 763.3 601 736.2 601C709 601 682 601 654.8 601C627.7 601 600.3 601 573 601C545.7 601 518.3 601 491 601C463.7 601 436.3 601 409 601C381.7 601 354.3 601 327 601C299.7 601 272.3 601 245.2 601C218 601 191 601 163.8 601C136.7 601 109.3 601 82 601C54.7 601 27.3 601 13.7 601L0 601Z" fill="#d72828"></path></svg>