<svg id="visual" viewBox="0 0 900 600" width="900" height="600" xmlns="http://www.w3.org/2000/svg" xmlns:xlink="http://www.w3.org/1999/xlink" version="1.1"><path d="M0 109L82 61L164 103L245 79L327 79L409 121L491 103L573 121L655 79L736 55L818 115L900 103L900 0L818 0L736 0L655 0L573 0L491 0L409 0L327 0L245 0L164 0L82 0L0 0Z" fill="#133e31"></path><path d="M0 211L82 217L164 247L245 139L327 223L409 253L491 169L573 187L655 217L736 217L818 241L900 157L900 101L818 113L736 53L655 77L573 119L491 101L409 119L327 77L245 77L164 101L82 59L0 107Z" fill="#0d553e"></path><path d="M0 319L82 301L164 331L245 397L327 421L409 433L491 427L573 295L655 343L736 307L818 385L900 343L900 155L818 239L736 215L655 215L573 185L491 167L409 251L327 221L245 137L164 245L82 215L0 209Z" fill="#036c49"></path><path d="M0 415L82 379L164 367L245 439L327 505L409 469L491 481L573 391L655 409L736 385L818 469L900 433L900 341L818 383L736 305L655 341L573 293L491 425L409 431L327 419L245 395L164 329L82 299L0 317Z" fill="#008452"></path><path d="M0 601L82 601L164 601L245 601L327 601L409 601L491 601L573 601L655 601L736 601L818 601L900 601L900 431L818 467L736 383L655 407L573 389L491 479L409 467L327 503L245 437L164 365L82 377L0 413Z" fill="#0f9d58"></path></svg>