<svg id="visual" viewBox="0 0 900 600" width="900" height="600" xmlns="http://www.w3.org/2000/svg" xmlns:xlink="http://www.w3.org/1999/xlink" version="1.1"><rect x="0" y="0" width="900" height="600" fill="#202731"></rect><path d="M0 419L13.7 414.5C27.3 410 54.7 401 82 394.3C109.3 387.7 136.7 383.3 163.8 392.3C191 401.3 218 423.7 245.2 418.3C272.3 413 299.7 380 327 380.7C354.3 381.3 381.7 415.7 409 442C436.3 468.3 463.7 486.7 491 466.8C518.3 447 545.7 389 573 359.3C600.3 329.7 627.7 328.3 654.8 352.8C682 377.3 709 427.7 736.2 443.5C763.3 459.3 790.7 440.7 818 440C845.3 439.3 872.7 456.7 886.3 465.3L900 474L900 0L886.3 0C872.7 0 845.3 0 818 0C790.7 0 763.3 0 736.2 0C709 0 682 0 654.8 0C627.7 0 600.3 0 573 0C545.7 0 518.3 0 491 0C463.7 0 436.3 0 409 0C381.7 0 354.3 0 327 0C299.7 0 272.3 0 245.2 0C218 0 191 0 163.8 0C136.7 0 109.3 0 82 0C54.7 0 27.3 0 13.7 0L0 0Z" fill="#271e32"></path><path d="M0 332L13.7 342.2C27.3 352.3 54.7 372.7 82 384.7C109.3 396.7 136.7 400.3 163.8 406C191 411.7 218 419.3 245.2 424.7C272.3 430 299.7 433 327 425C354.3 417 381.7 398 409 384.7C436.3 371.3 463.7 363.7 491 370.5C518.3 377.3 545.7 398.7 573 388.2C600.3 377.7 627.7 335.3 654.8 330.3C682 325.3 709 357.7 736.2 358.7C763.3 359.7 790.7 329.3 818 334.2C845.3 339 872.7 379 886.3 399L900 419L900 0L886.3 0C872.7 0 845.3 0 818 0C790.7 0 763.3 0 736.2 0C709 0 682 0 654.8 0C627.7 0 600.3 0 573 0C545.7 0 518.3 0 491 0C463.7 0 436.3 0 409 0C381.7 0 354.3 0 327 0C299.7 0 272.3 0 245.2 0C218 0 191 0 163.8 0C136.7 0 109.3 0 82 0C54.7 0 27.3 0 13.7 0L0 0Z" fill="#2b314d"></path><path d="M0 367L13.7 344.7C27.3 322.3 54.7 277.7 82 275.5C109.3 273.3 136.7 313.7 163.8 320C191 326.3 218 298.7 245.2 283.7C272.3 268.7 299.7 266.3 327 271.5C354.3 276.7 381.7 289.3 409 298.7C436.3 308 463.7 314 491 315.7C518.3 317.3 545.7 314.7 573 322.3C600.3 330 627.7 348 654.8 351.2C682 354.3 709 342.7 736.2 324.5C763.3 306.3 790.7 281.7 818 276.3C845.3 271 872.7 285 886.3 292L900 299L900 0L886.3 0C872.7 0 845.3 0 818 0C790.7 0 763.3 0 736.2 0C709 0 682 0 654.8 0C627.7 0 600.3 0 573 0C545.7 0 518.3 0 491 0C463.7 0 436.3 0 409 0C381.7 0 354.3 0 327 0C299.7 0 272.3 0 245.2 0C218 0 191 0 163.8 0C136.7 0 109.3 0 82 0C54.7 0 27.3 0 13.7 0L0 0Z" fill="#244768"></path><path d="M0 207L13.7 202.7C27.3 198.3 54.7 189.7 82 190.5C109.3 191.3 136.7 201.7 163.8 214.3C191 227 218 242 245.2 242C272.3 242 299.7 227 327 219.7C354.3 212.3 381.7 212.7 409 218.3C436.3 224 463.7 235 491 240C518.3 245 545.7 244 573 234C600.3 224 627.7 205 654.8 209.7C682 214.3 709 242.7 736.2 258.5C763.3 274.3 790.7 277.7 818 269.3C845.3 261 872.7 241 886.3 231L900 221L900 0L886.3 0C872.7 0 845.3 0 818 0C790.7 0 763.3 0 736.2 0C709 0 682 0 654.8 0C627.7 0 600.3 0 573 0C545.7 0 518.3 0 491 0C463.7 0 436.3 0 409 0C381.7 0 354.3 0 327 0C299.7 0 272.3 0 245.2 0C218 0 191 0 163.8 0C136.7 0 109.3 0 82 0C54.7 0 27.3 0 13.7 0L0 0Z" fill="#005e7e"></path><path d="M0 136L13.7 142.3C27.3 148.7 54.7 161.3 82 168.8C109.3 176.3 136.7 178.7 163.8 185C191 191.3 218 201.7 245.2 201.2C272.3 200.7 299.7 189.3 327 178.3C354.3 167.3 381.7 156.7 409 163.5C436.3 170.3 463.7 194.7 491 194.2C518.3 193.7 545.7 168.3 573 162.8C600.3 157.3 627.7 171.7 654.8 186.8C682 202 709 218 736.2 227.2C763.3 236.3 790.7 238.7 818 222.8C845.3 207 872.7 173 886.3 156L900 139L900 0L886.3 0C872.7 0 845.3 0 818 0C790.7 0 763.3 0 736.2 0C709 0 682 0 654.8 0C627.7 0 600.3 0 573 0C545.7 0 518.3 0 491 0C463.7 0 436.3 0 409 0C381.7 0 354.3 0 327 0C299.7 0 272.3 0 245.2 0C218 0 191 0 163.8 0C136.7 0 109.3 0 82 0C54.7 0 27.3 0 13.7 0L0 0Z" fill="#007689"></path><path d="M0 113L13.7 109.5C27.3 106 54.7 99 82 106.8C109.3 114.7 136.7 137.3 163.8 139.3C191 141.3 218 122.7 245.2 123.3C272.3 124 299.7 144 327 143C354.3 142 381.7 120 409 116.5C436.3 113 463.7 128 491 136C518.3 144 545.7 145 573 143.7C600.3 142.3 627.7 138.7 654.8 128.5C682 118.3 709 101.7 736.2 97.2C763.3 92.7 790.7 100.3 818 105.2C845.3 110 872.7 112 886.3 113L900 114L900 0L886.3 0C872.7 0 845.3 0 818 0C790.7 0 763.3 0 736.2 0C709 0 682 0 654.8 0C627.7 0 600.3 0 573 0C545.7 0 518.3 0 491 0C463.7 0 436.3 0 409 0C381.7 0 354.3 0 327 0C299.7 0 272.3 0 245.2 0C218 0 191 0 163.8 0C136.7 0 109.3 0 82 0C54.7 0 27.3 0 13.7 0L0 0Z" fill="#008b7b"></path><path d="M0 45L13.7 53.8C27.3 62.7 54.7 80.3 82 86.7C109.3 93 136.7 88 163.8 80C191 72 218 61 245.2 60.2C272.3 59.3 299.7 68.7 327 74.2C354.3 79.7 381.7 81.3 409 82.3C436.3 83.3 463.7 83.7 491 83.3C518.3 83 545.7 82 573 83.3C600.3 84.7 627.7 88.3 654.8 83.7C682 79 709 66 736.2 68.7C763.3 71.3 790.7 89.7 818 97.7C845.3 105.7 872.7 103.3 886.3 102.2L900 101L900 0L886.3 0C872.7 0 845.3 0 818 0C790.7 0 763.3 0 736.2 0C709 0 682 0 654.8 0C627.7 0 600.3 0 573 0C545.7 0 518.3 0 491 0C463.7 0 436.3 0 409 0C381.7 0 354.3 0 327 0C299.7 0 272.3 0 245.2 0C218 0 191 0 163.8 0C136.7 0 109.3 0 82 0C54.7 0 27.3 0 13.7 0L0 0Z" fill="#0f9d58"></path></svg>