<svg id="visual" viewBox="0 0 900 600" width="900" height="600" xmlns="http://www.w3.org/2000/svg" xmlns:xlink="http://www.w3.org/1999/xlink" version="1.1"><rect x="0" y="0" width="900" height="600" fill="#202731"></rect><path d="M0 391L13.7 383.5C27.3 376 54.7 361 82 364.8C109.3 368.7 136.7 391.3 163.8 417C191 442.7 218 471.3 245.2 464C272.3 456.7 299.7 413.3 327 403.8C354.3 394.3 381.7 418.7 409 417.7C436.3 416.7 463.7 390.3 491 386.2C518.3 382 545.7 400 573 412.5C600.3 425 627.7 432 654.8 429.2C682 426.3 709 413.7 736.2 419C763.3 424.3 790.7 447.7 818 450.8C845.3 454 872.7 437 886.3 428.5L900 420L900 0L886.3 0C872.7 0 845.3 0 818 0C790.7 0 763.3 0 736.2 0C709 0 682 0 654.8 0C627.7 0 600.3 0 573 0C545.7 0 518.3 0 491 0C463.7 0 436.3 0 409 0C381.7 0 354.3 0 327 0C299.7 0 272.3 0 245.2 0C218 0 191 0 163.8 0C136.7 0 109.3 0 82 0C54.7 0 27.3 0 13.7 0L0 0Z" fill="#0d3997"></path><path d="M0 285L13.7 287.3C27.3 289.7 54.7 294.3 82 318C109.3 341.7 136.7 384.3 163.8 387.7C191 391 218 355 245.2 329.7C272.3 304.3 299.7 289.7 327 307.7C354.3 325.7 381.7 376.3 409 375.8C436.3 375.3 463.7 323.7 491 305C518.3 286.3 545.7 300.7 573 316.5C600.3 332.3 627.7 349.7 654.8 359C682 368.3 709 369.7 736.2 362.5C763.3 355.3 790.7 339.7 818 341.7C845.3 343.7 872.7 363.3 886.3 373.2L900 383L900 0L886.3 0C872.7 0 845.3 0 818 0C790.7 0 763.3 0 736.2 0C709 0 682 0 654.8 0C627.7 0 600.3 0 573 0C545.7 0 518.3 0 491 0C463.7 0 436.3 0 409 0C381.7 0 354.3 0 327 0C299.7 0 272.3 0 245.2 0C218 0 191 0 163.8 0C136.7 0 109.3 0 82 0C54.7 0 27.3 0 13.7 0L0 0Z" fill="#5c3094"></path><path d="M0 309L13.7 317C27.3 325 54.7 341 82 333.5C109.3 326 136.7 295 163.8 295.7C191 296.3 218 328.7 245.2 330.5C272.3 332.3 299.7 303.7 327 298.2C354.3 292.7 381.7 310.3 409 319.2C436.3 328 463.7 328 491 319.8C518.3 311.7 545.7 295.3 573 283.2C600.3 271 627.7 263 654.8 265C682 267 709 279 736.2 275.5C763.3 272 790.7 253 818 261C845.3 269 872.7 304 886.3 321.5L900 339L900 0L886.3 0C872.7 0 845.3 0 818 0C790.7 0 763.3 0 736.2 0C709 0 682 0 654.8 0C627.7 0 600.3 0 573 0C545.7 0 518.3 0 491 0C463.7 0 436.3 0 409 0C381.7 0 354.3 0 327 0C299.7 0 272.3 0 245.2 0C218 0 191 0 163.8 0C136.7 0 109.3 0 82 0C54.7 0 27.3 0 13.7 0L0 0Z" fill="#862189"></path><path d="M0 301L13.7 282.3C27.3 263.7 54.7 226.3 82 207.3C109.3 188.3 136.7 187.7 163.8 198.7C191 209.7 218 232.3 245.2 251C272.3 269.7 299.7 284.3 327 291.3C354.3 298.3 381.7 297.7 409 279.7C436.3 261.7 463.7 226.3 491 219.5C518.3 212.7 545.7 234.3 573 233.7C600.3 233 627.7 210 654.8 207.5C682 205 709 223 736.2 233C763.3 243 790.7 245 818 244.2C845.3 243.3 872.7 239.7 886.3 237.8L900 236L900 0L886.3 0C872.7 0 845.3 0 818 0C790.7 0 763.3 0 736.2 0C709 0 682 0 654.8 0C627.7 0 600.3 0 573 0C545.7 0 518.3 0 491 0C463.7 0 436.3 0 409 0C381.7 0 354.3 0 327 0C299.7 0 272.3 0 245.2 0C218 0 191 0 163.8 0C136.7 0 109.3 0 82 0C54.7 0 27.3 0 13.7 0L0 0Z" fill="#a70578"></path><path d="M0 179L13.7 180.8C27.3 182.7 54.7 186.3 82 186.8C109.3 187.3 136.7 184.7 163.8 183.8C191 183 218 184 245.2 188.2C272.3 192.3 299.7 199.7 327 205C354.3 210.3 381.7 213.7 409 202.3C436.3 191 463.7 165 491 158.2C518.3 151.3 545.7 163.7 573 174.3C600.3 185 627.7 194 654.8 199.3C682 204.7 709 206.3 736.2 206.7C763.3 207 790.7 206 818 194C845.3 182 872.7 159 886.3 147.5L900 136L900 0L886.3 0C872.7 0 845.3 0 818 0C790.7 0 763.3 0 736.2 0C709 0 682 0 654.8 0C627.7 0 600.3 0 573 0C545.7 0 518.3 0 491 0C463.7 0 436.3 0 409 0C381.7 0 354.3 0 327 0C299.7 0 272.3 0 245.2 0C218 0 191 0 163.8 0C136.7 0 109.3 0 82 0C54.7 0 27.3 0 13.7 0L0 0Z" fill="#bf0062"></path><path d="M0 146L13.7 137.2C27.3 128.3 54.7 110.7 82 110.3C109.3 110 136.7 127 163.8 134.2C191 141.3 218 138.7 245.2 130.7C272.3 122.7 299.7 109.3 327 110.7C354.3 112 381.7 128 409 135C436.3 142 463.7 140 491 134.3C518.3 128.7 545.7 119.3 573 117.7C600.3 116 627.7 122 654.8 121.5C682 121 709 114 736.2 120.8C763.3 127.7 790.7 148.3 818 153.7C845.3 159 872.7 149 886.3 144L900 139L900 0L886.3 0C872.7 0 845.3 0 818 0C790.7 0 763.3 0 736.2 0C709 0 682 0 654.8 0C627.7 0 600.3 0 573 0C545.7 0 518.3 0 491 0C463.7 0 436.3 0 409 0C381.7 0 354.3 0 327 0C299.7 0 272.3 0 245.2 0C218 0 191 0 163.8 0C136.7 0 109.3 0 82 0C54.7 0 27.3 0 13.7 0L0 0Z" fill="#cd0a4a"></path><path d="M0 56L13.7 63.7C27.3 71.3 54.7 86.7 82 86.8C109.3 87 136.7 72 163.8 72.5C191 73 218 89 245.2 95.5C272.3 102 299.7 99 327 93.8C354.3 88.7 381.7 81.3 409 75.2C436.3 69 463.7 64 491 66.7C518.3 69.3 545.7 79.7 573 88C600.3 96.3 627.7 102.7 654.8 98.8C682 95 709 81 736.2 71C763.3 61 790.7 55 818 51.2C845.3 47.3 872.7 45.7 886.3 44.8L900 44L900 0L886.3 0C872.7 0 845.3 0 818 0C790.7 0 763.3 0 736.2 0C709 0 682 0 654.8 0C627.7 0 600.3 0 573 0C545.7 0 518.3 0 491 0C463.7 0 436.3 0 409 0C381.7 0 354.3 0 327 0C299.7 0 272.3 0 245.2 0C218 0 191 0 163.8 0C136.7 0 109.3 0 82 0C54.7 0 27.3 0 13.7 0L0 0Z" fill="#d32f2f"></path></svg>