<svg id="visual" viewBox="0 0 900 600" width="900" height="600" xmlns="http://www.w3.org/2000/svg" xmlns:xlink="http://www.w3.org/1999/xlink" version="1.1"><g stroke-width="1" stroke-linejoin="bevel"><path d="M407 287L502 317L514 222Z" fill="#183613" stroke="#183613"></path><path d="M514 222L408 181L407 287Z" fill="#d5aa00" stroke="#d5aa00"></path><path d="M407 287L500 376L502 317Z" fill="#9d9300" stroke="#9d9300"></path><path d="M502 317L600 225L514 222Z" fill="#b89f00" stroke="#b89f00"></path><path d="M635 333L600 225L502 317Z" fill="#345115" stroke="#345115"></path><path d="M514 222L461 99L408 181Z" fill="#586d12" stroke="#586d12"></path><path d="M408 181L334 216L407 287Z" fill="#b89f00" stroke="#b89f00"></path><path d="M269 261L371 391L407 287Z" fill="#586d12" stroke="#586d12"></path><path d="M407 287L371 391L500 376Z" fill="#254415" stroke="#254415"></path><path d="M622 101L461 99L514 222Z" fill="#9d9300" stroke="#9d9300"></path><path d="M408 181L296 78L334 216Z" fill="#d5aa00" stroke="#d5aa00"></path><path d="M610 404L635 333L502 317Z" fill="#586d12" stroke="#586d12"></path><path d="M165 210L269 261L334 216Z" fill="#586d12" stroke="#586d12"></path><path d="M334 216L269 261L407 287Z" fill="#183613" stroke="#183613"></path><path d="M500 376L610 404L502 317Z" fill="#586d12" stroke="#586d12"></path><path d="M501 521L610 404L500 376Z" fill="#f4b400" stroke="#f4b400"></path><path d="M461 99L381 70L408 181Z" fill="#586d12" stroke="#586d12"></path><path d="M689 366L679 309L635 333Z" fill="#9d9300" stroke="#9d9300"></path><path d="M635 333L679 309L600 225Z" fill="#586d12" stroke="#586d12"></path><path d="M269 261L296 406L371 391Z" fill="#6d7a0d" stroke="#6d7a0d"></path><path d="M371 391L501 521L500 376Z" fill="#6d7a0d" stroke="#6d7a0d"></path><path d="M720 187L622 101L600 225Z" fill="#848706" stroke="#848706"></path><path d="M600 225L622 101L514 222Z" fill="#6d7a0d" stroke="#6d7a0d"></path><path d="M461 99L421 0L381 70Z" fill="#455f14" stroke="#455f14"></path><path d="M610 404L689 366L635 333Z" fill="#848706" stroke="#848706"></path><path d="M381 70L296 78L408 181Z" fill="#b89f00" stroke="#b89f00"></path><path d="M378 525L501 521L371 391Z" fill="#254415" stroke="#254415"></path><path d="M610 404L679 485L689 366Z" fill="#345115" stroke="#345115"></path><path d="M679 309L720 187L600 225Z" fill="#183613" stroke="#183613"></path><path d="M776 178L720 187L800 277Z" fill="#848706" stroke="#848706"></path><path d="M524 0L421 0L461 99Z" fill="#455f14" stroke="#455f14"></path><path d="M381 70L315 0L296 78Z" fill="#183613" stroke="#183613"></path><path d="M625 0L524 0L622 101Z" fill="#455f14" stroke="#455f14"></path><path d="M622 101L524 0L461 99Z" fill="#183613" stroke="#183613"></path><path d="M296 406L320 492L371 391Z" fill="#9d9300" stroke="#9d9300"></path><path d="M320 492L378 525L371 391Z" fill="#b89f00" stroke="#b89f00"></path><path d="M501 521L639 484L610 404Z" fill="#d5aa00" stroke="#d5aa00"></path><path d="M720 187L716 108L622 101Z" fill="#9d9300" stroke="#9d9300"></path><path d="M165 210L172 271L269 261Z" fill="#455f14" stroke="#455f14"></path><path d="M269 261L172 271L296 406Z" fill="#848706" stroke="#848706"></path><path d="M296 406L181 460L320 492Z" fill="#6d7a0d" stroke="#6d7a0d"></path><path d="M421 0L315 0L381 70Z" fill="#f4b400" stroke="#f4b400"></path><path d="M296 78L165 210L334 216Z" fill="#345115" stroke="#345115"></path><path d="M175 93L165 210L296 78Z" fill="#254415" stroke="#254415"></path><path d="M681 600L679 485L639 484Z" fill="#9d9300" stroke="#9d9300"></path><path d="M639 484L679 485L610 404Z" fill="#183613" stroke="#183613"></path><path d="M800 277L720 187L679 309Z" fill="#183613" stroke="#183613"></path><path d="M716 108L625 0L622 101Z" fill="#f4b400" stroke="#f4b400"></path><path d="M800 277L679 309L689 366Z" fill="#f4b400" stroke="#f4b400"></path><path d="M720 187L776 178L716 108Z" fill="#6d7a0d" stroke="#6d7a0d"></path><path d="M716 108L721 0L625 0Z" fill="#6d7a0d" stroke="#6d7a0d"></path><path d="M829 391L800 277L689 366Z" fill="#586d12" stroke="#586d12"></path><path d="M93 385L169 420L172 271Z" fill="#254415" stroke="#254415"></path><path d="M172 271L169 420L296 406Z" fill="#9d9300" stroke="#9d9300"></path><path d="M405 600L501 521L378 525Z" fill="#b89f00" stroke="#b89f00"></path><path d="M405 600L486 600L501 521Z" fill="#f4b400" stroke="#f4b400"></path><path d="M501 521L578 600L639 484Z" fill="#6d7a0d" stroke="#6d7a0d"></path><path d="M405 600L378 525L332 600Z" fill="#345115" stroke="#345115"></path><path d="M191 0L175 93L296 78Z" fill="#6d7a0d" stroke="#6d7a0d"></path><path d="M332 600L378 525L320 492Z" fill="#848706" stroke="#848706"></path><path d="M169 420L181 460L296 406Z" fill="#9d9300" stroke="#9d9300"></path><path d="M486 600L578 600L501 521Z" fill="#455f14" stroke="#455f14"></path><path d="M171 600L332 600L320 492Z" fill="#455f14" stroke="#455f14"></path><path d="M795 0L721 0L716 108Z" fill="#345115" stroke="#345115"></path><path d="M315 0L191 0L296 78Z" fill="#254415" stroke="#254415"></path><path d="M782 517L829 391L679 485Z" fill="#b89f00" stroke="#b89f00"></path><path d="M679 485L829 391L689 366Z" fill="#455f14" stroke="#455f14"></path><path d="M900 122L820 84L776 178Z" fill="#848706" stroke="#848706"></path><path d="M169 420L81 533L181 460Z" fill="#6d7a0d" stroke="#6d7a0d"></path><path d="M165 210L79 278L172 271Z" fill="#f4b400" stroke="#f4b400"></path><path d="M64 215L79 278L165 210Z" fill="#455f14" stroke="#455f14"></path><path d="M64 215L165 210L66 131Z" fill="#f4b400" stroke="#f4b400"></path><path d="M79 278L93 385L172 271Z" fill="#f4b400" stroke="#f4b400"></path><path d="M181 460L171 600L320 492Z" fill="#6d7a0d" stroke="#6d7a0d"></path><path d="M776 178L820 84L716 108Z" fill="#f4b400" stroke="#f4b400"></path><path d="M900 226L776 178L800 277Z" fill="#9d9300" stroke="#9d9300"></path><path d="M578 600L681 600L639 484Z" fill="#586d12" stroke="#586d12"></path><path d="M681 600L782 517L679 485Z" fill="#f4b400" stroke="#f4b400"></path><path d="M66 131L165 210L175 93Z" fill="#d5aa00" stroke="#d5aa00"></path><path d="M0 537L81 533L93 385Z" fill="#848706" stroke="#848706"></path><path d="M820 84L795 0L716 108Z" fill="#848706" stroke="#848706"></path><path d="M134 0L66 131L175 93Z" fill="#183613" stroke="#183613"></path><path d="M191 0L134 0L175 93Z" fill="#f4b400" stroke="#f4b400"></path><path d="M900 403L900 271L829 391Z" fill="#183613" stroke="#183613"></path><path d="M829 391L900 271L800 277Z" fill="#f4b400" stroke="#f4b400"></path><path d="M820 84L900 0L795 0Z" fill="#254415" stroke="#254415"></path><path d="M900 271L900 226L800 277Z" fill="#d5aa00" stroke="#d5aa00"></path><path d="M81 533L171 600L181 460Z" fill="#b89f00" stroke="#b89f00"></path><path d="M900 522L900 403L829 391Z" fill="#455f14" stroke="#455f14"></path><path d="M900 226L900 122L776 178Z" fill="#586d12" stroke="#586d12"></path><path d="M0 329L93 385L79 278Z" fill="#848706" stroke="#848706"></path><path d="M93 385L81 533L169 420Z" fill="#254415" stroke="#254415"></path><path d="M64 215L0 329L79 278Z" fill="#848706" stroke="#848706"></path><path d="M0 164L0 329L64 215Z" fill="#848706" stroke="#848706"></path><path d="M0 329L0 361L93 385Z" fill="#b89f00" stroke="#b89f00"></path><path d="M0 112L0 164L66 131Z" fill="#9d9300" stroke="#9d9300"></path><path d="M66 131L0 164L64 215Z" fill="#455f14" stroke="#455f14"></path><path d="M0 0L0 112L66 131Z" fill="#254415" stroke="#254415"></path><path d="M81 533L105 600L171 600Z" fill="#345115" stroke="#345115"></path><path d="M0 600L105 600L81 533Z" fill="#183613" stroke="#183613"></path><path d="M681 600L829 600L782 517Z" fill="#345115" stroke="#345115"></path><path d="M782 517L900 522L829 391Z" fill="#254415" stroke="#254415"></path><path d="M829 600L900 522L782 517Z" fill="#586d12" stroke="#586d12"></path><path d="M900 122L900 0L820 84Z" fill="#9d9300" stroke="#9d9300"></path><path d="M134 0L0 0L66 131Z" fill="#6d7a0d" stroke="#6d7a0d"></path><path d="M0 361L0 537L93 385Z" fill="#6d7a0d" stroke="#6d7a0d"></path><path d="M829 600L900 600L900 522Z" fill="#848706" stroke="#848706"></path><path d="M0 537L0 600L81 533Z" fill="#b89f00" stroke="#b89f00"></path></g></svg>